<?xml version="1.0" encoding="UTF-8" standalone="no"?>
<!DOCTYPE svg PUBLIC "-//W3C//DTD SVG 1.1//EN"
 "http://www.w3.org/Graphics/SVG/1.1/DTD/svg11.dtd">
<!-- Generated by graphviz version 2.43.0 (0)
 -->
<!-- Title: G Pages: 1 -->
<svg width="396pt" height="123pt"
 viewBox="0.00 0.00 396.20 123.20" xmlns="http://www.w3.org/2000/svg" xmlns:xlink="http://www.w3.org/1999/xlink">
<g id="graph0" class="graph" transform="scale(1 1) rotate(0) translate(21.6 101.6)">
<title>G</title>
<polygon fill="#ffffff" stroke="transparent" points="-21.6,21.6 -21.6,-101.6 374.6,-101.6 374.6,21.6 -21.6,21.6"/>
<!-- index.js -->
<g id="node1" class="node">
<title>index.js</title>
<path fill="none" stroke="#254bd7" d="M51,-41C51,-41 7,-41 7,-41 3.5,-41 0,-37.5 0,-34 0,-34 0,-27 0,-27 0,-23.5 3.5,-20 7,-20 7,-20 51,-20 51,-20 54.5,-20 58,-23.5 58,-27 58,-27 58,-34 58,-34 58,-37.5 54.5,-41 51,-41"/>
<text text-anchor="middle" x="29" y="-27.4" font-family="Arial" font-size="12.00" fill="#254bd7">index.js</text>
</g>
<!-- src/model/Socket.js -->
<g id="node2" class="node">
<title>src/model/Socket.js</title>
<path fill="none" stroke="#43d994" d="M209.5,-80C209.5,-80 103.5,-80 103.5,-80 100,-80 96.5,-76.5 96.5,-73 96.5,-73 96.5,-66 96.5,-66 96.5,-62.5 100,-59 103.5,-59 103.5,-59 209.5,-59 209.5,-59 213,-59 216.5,-62.5 216.5,-66 216.5,-66 216.5,-73 216.5,-73 216.5,-76.5 213,-80 209.5,-80"/>
<text text-anchor="middle" x="156.5" y="-66.4" font-family="Arial" font-size="12.00" fill="#43d994">src/model/Socket.js</text>
</g>
<!-- index.js&#45;&gt;src/model/Socket.js -->
<g id="edge1" class="edge">
<title>index.js&#45;&gt;src/model/Socket.js</title>
<path fill="none" stroke="#757575" d="M58.03,-39.28C69.22,-42.78 82.22,-46.84 94,-50.5 99.67,-52.26 105.64,-54.11 111.54,-55.94"/>
<polygon fill="#757575" stroke="#757575" points="110.75,-59.36 121.34,-58.97 112.82,-52.67 110.75,-59.36"/>
</g>
<!-- src/model/Storage.js -->
<g id="node3" class="node">
<title>src/model/Storage.js</title>
<path fill="none" stroke="#254bd7" d="M212,-41C212,-41 101,-41 101,-41 97.5,-41 94,-37.5 94,-34 94,-34 94,-27 94,-27 94,-23.5 97.5,-20 101,-20 101,-20 212,-20 212,-20 215.5,-20 219,-23.5 219,-27 219,-27 219,-34 219,-34 219,-37.5 215.5,-41 212,-41"/>
<text text-anchor="middle" x="156.5" y="-27.4" font-family="Arial" font-size="12.00" fill="#254bd7">src/model/Storage.js</text>
</g>
<!-- index.js&#45;&gt;src/model/Storage.js -->
<g id="edge2" class="edge">
<title>index.js&#45;&gt;src/model/Storage.js</title>
<path fill="none" stroke="#757575" d="M58.16,-30.5C65.88,-30.5 74.62,-30.5 83.61,-30.5"/>
<polygon fill="#757575" stroke="#757575" points="83.83,-34 93.82,-30.5 83.82,-27 83.83,-34"/>
</g>
<!-- src/utils/tools.js -->
<g id="node4" class="node">
<title>src/utils/tools.js</title>
<path fill="none" stroke="#43d994" d="M346,-21C346,-21 262,-21 262,-21 258.5,-21 255,-17.5 255,-14 255,-14 255,-7 255,-7 255,-3.5 258.5,0 262,0 262,0 346,0 346,0 349.5,0 353,-3.5 353,-7 353,-7 353,-14 353,-14 353,-17.5 349.5,-21 346,-21"/>
<text text-anchor="middle" x="304" y="-7.4" font-family="Arial" font-size="12.00" fill="#43d994">src/utils/tools.js</text>
</g>
<!-- index.js&#45;&gt;src/utils/tools.js -->
<g id="edge3" class="edge">
<title>index.js&#45;&gt;src/utils/tools.js</title>
<path fill="none" stroke="#757575" d="M58.28,-20.22C69.28,-16.73 82.08,-13.26 94,-11.5 144.57,-4.03 202.78,-4.48 244.9,-6.39"/>
<polygon fill="#757575" stroke="#757575" points="244.82,-9.89 254.98,-6.89 245.17,-2.9 244.82,-9.89"/>
</g>
<!-- src/model/Storage.js&#45;&gt;src/utils/tools.js -->
<g id="edge4" class="edge">
<title>src/model/Storage.js&#45;&gt;src/utils/tools.js</title>
<path fill="none" stroke="#757575" d="M219.21,-22.02C227.69,-20.85 236.37,-19.66 244.78,-18.5"/>
<polygon fill="#757575" stroke="#757575" points="245.45,-21.94 254.88,-17.11 244.5,-15.01 245.45,-21.94"/>
</g>
</g>
</svg>
