<?xml version="1.0" encoding="UTF-8" standalone="no"?>
<!DOCTYPE svg PUBLIC "-//W3C//DTD SVG 1.1//EN"
 "http://www.w3.org/Graphics/SVG/1.1/DTD/svg11.dtd">
<!-- Generated by graphviz version 2.43.0 (0)
 -->
<!-- Title: G Pages: 1 -->
<svg width="250pt" height="64pt"
 viewBox="0.00 0.00 250.20 64.20" xmlns="http://www.w3.org/2000/svg" xmlns:xlink="http://www.w3.org/1999/xlink">
<g id="graph0" class="graph" transform="scale(1 1) rotate(0) translate(21.6 42.6)">
<title>G</title>
<polygon fill="#ffffff" stroke="transparent" points="-21.6,21.6 -21.6,-42.6 228.6,-42.6 228.6,21.6 -21.6,21.6"/>
<!-- ../../src/utils/tools.js -->
<g id="node1" class="node">
<title>../../src/utils/tools.js</title>
<path fill="none" stroke="#43d994" d="M200,-21C200,-21 98,-21 98,-21 94.5,-21 91,-17.5 91,-14 91,-14 91,-7 91,-7 91,-3.5 94.5,0 98,0 98,0 200,0 200,0 203.5,0 207,-3.5 207,-7 207,-7 207,-14 207,-14 207,-17.5 203.5,-21 200,-21"/>
<text text-anchor="middle" x="149" y="-7.4" font-family="Arial" font-size="12.00" fill="#43d994">../../src/utils/tools.js</text>
</g>
<!-- main.js -->
<g id="node2" class="node">
<title>main.js</title>
<path fill="none" stroke="#254bd7" d="M48,-21C48,-21 7,-21 7,-21 3.5,-21 0,-17.5 0,-14 0,-14 0,-7 0,-7 0,-3.5 3.5,0 7,0 7,0 48,0 48,0 51.5,0 55,-3.5 55,-7 55,-7 55,-14 55,-14 55,-17.5 51.5,-21 48,-21"/>
<text text-anchor="middle" x="27.5" y="-7.4" font-family="Arial" font-size="12.00" fill="#254bd7">main.js</text>
</g>
<!-- main.js&#45;&gt;../../src/utils/tools.js -->
<g id="edge1" class="edge">
<title>main.js&#45;&gt;../../src/utils/tools.js</title>
<path fill="none" stroke="#757575" d="M55.02,-10.5C62.71,-10.5 71.49,-10.5 80.5,-10.5"/>
<polygon fill="#757575" stroke="#757575" points="80.73,-14 90.73,-10.5 80.73,-7 80.73,-14"/>
</g>
</g>
</svg>
