<?xml version="1.0" encoding="UTF-8" standalone="no"?>
<!DOCTYPE svg PUBLIC "-//W3C//DTD SVG 1.1//EN"
 "http://www.w3.org/Graphics/SVG/1.1/DTD/svg11.dtd">
<!-- Generated by graphviz version 2.43.0 (0)
 -->
<!-- Title: G Pages: 1 -->
<svg width="672pt" height="142pt"
 viewBox="0.00 0.00 672.20 142.20" xmlns="http://www.w3.org/2000/svg" xmlns:xlink="http://www.w3.org/1999/xlink">
<g id="graph0" class="graph" transform="scale(1 1) rotate(0) translate(21.6 120.6)">
<title>G</title>
<polygon fill="#ffffff" stroke="transparent" points="-21.6,21.6 -21.6,-120.6 650.6,-120.6 650.6,21.6 -21.6,21.6"/>
<!-- index.js -->
<g id="node1" class="node">
<title>index.js</title>
<path fill="none" stroke="#254bd7" d="M51,-79C51,-79 7,-79 7,-79 3.5,-79 0,-75.5 0,-72 0,-72 0,-65 0,-65 0,-61.5 3.5,-58 7,-58 7,-58 51,-58 51,-58 54.5,-58 58,-61.5 58,-65 58,-65 58,-72 58,-72 58,-75.5 54.5,-79 51,-79"/>
<text text-anchor="middle" x="29" y="-65.4" font-family="Arial" font-size="12.00" fill="#254bd7">index.js</text>
</g>
<!-- src/services/query.service.js -->
<g id="node2" class="node">
<title>src/services/query.service.js</title>
<path fill="none" stroke="#254bd7" d="M252,-60C252,-60 101,-60 101,-60 97.5,-60 94,-56.5 94,-53 94,-53 94,-46 94,-46 94,-42.5 97.5,-39 101,-39 101,-39 252,-39 252,-39 255.5,-39 259,-42.5 259,-46 259,-46 259,-53 259,-53 259,-56.5 255.5,-60 252,-60"/>
<text text-anchor="middle" x="176.5" y="-46.4" font-family="Arial" font-size="12.00" fill="#254bd7">src/services/query.service.js</text>
</g>
<!-- index.js&#45;&gt;src/services/query.service.js -->
<g id="edge1" class="edge">
<title>index.js&#45;&gt;src/services/query.service.js</title>
<path fill="none" stroke="#757575" d="M58.05,-64.84C66.02,-63.8 75.16,-62.6 84.74,-61.35"/>
<polygon fill="#757575" stroke="#757575" points="85.39,-64.8 94.85,-60.03 84.48,-57.86 85.39,-64.8"/>
</g>
<!-- src/utils/tools.js -->
<g id="node3" class="node">
<title>src/utils/tools.js</title>
<path fill="none" stroke="#43d994" d="M408.5,-99C408.5,-99 324.5,-99 324.5,-99 321,-99 317.5,-95.5 317.5,-92 317.5,-92 317.5,-85 317.5,-85 317.5,-81.5 321,-78 324.5,-78 324.5,-78 408.5,-78 408.5,-78 412,-78 415.5,-81.5 415.5,-85 415.5,-85 415.5,-92 415.5,-92 415.5,-95.5 412,-99 408.5,-99"/>
<text text-anchor="middle" x="366.5" y="-85.4" font-family="Arial" font-size="12.00" fill="#43d994">src/utils/tools.js</text>
</g>
<!-- index.js&#45;&gt;src/utils/tools.js -->
<g id="edge2" class="edge">
<title>index.js&#45;&gt;src/utils/tools.js</title>
<path fill="none" stroke="#757575" d="M58.03,-70.17C112.59,-73.42 234.1,-80.67 306.97,-85.01"/>
<polygon fill="#757575" stroke="#757575" points="307.16,-88.53 317.36,-85.63 307.58,-81.54 307.16,-88.53"/>
</g>
<!-- src/services/query.service.js&#45;&gt;src/utils/tools.js -->
<g id="edge6" class="edge">
<title>src/services/query.service.js&#45;&gt;src/utils/tools.js</title>
<path fill="none" stroke="#757575" d="M228.38,-60.05C252.86,-65.13 282.32,-71.24 307.65,-76.5"/>
<polygon fill="#757575" stroke="#757575" points="306.99,-79.94 317.5,-78.54 308.42,-73.08 306.99,-79.94"/>
</g>
<!-- src/database/mariadb.js -->
<g id="node5" class="node">
<title>src/database/mariadb.js</title>
<path fill="none" stroke="#254bd7" d="M431,-60C431,-60 302,-60 302,-60 298.5,-60 295,-56.5 295,-53 295,-53 295,-46 295,-46 295,-42.5 298.5,-39 302,-39 302,-39 431,-39 431,-39 434.5,-39 438,-42.5 438,-46 438,-46 438,-53 438,-53 438,-56.5 434.5,-60 431,-60"/>
<text text-anchor="middle" x="366.5" y="-46.4" font-family="Arial" font-size="12.00" fill="#254bd7">src/database/mariadb.js</text>
</g>
<!-- src/services/query.service.js&#45;&gt;src/database/mariadb.js -->
<g id="edge4" class="edge">
<title>src/services/query.service.js&#45;&gt;src/database/mariadb.js</title>
<path fill="none" stroke="#757575" d="M259.14,-49.5C267.59,-49.5 276.18,-49.5 284.63,-49.5"/>
<polygon fill="#757575" stroke="#757575" points="284.84,-53 294.84,-49.5 284.84,-46 284.84,-53"/>
</g>
<!-- src/models/Query.js -->
<g id="node6" class="node">
<title>src/models/Query.js</title>
<path fill="none" stroke="#43d994" d="M420,-21C420,-21 313,-21 313,-21 309.5,-21 306,-17.5 306,-14 306,-14 306,-7 306,-7 306,-3.5 309.5,0 313,0 313,0 420,0 420,0 423.5,0 427,-3.5 427,-7 427,-7 427,-14 427,-14 427,-17.5 423.5,-21 420,-21"/>
<text text-anchor="middle" x="366.5" y="-7.4" font-family="Arial" font-size="12.00" fill="#43d994">src/models/Query.js</text>
</g>
<!-- src/services/query.service.js&#45;&gt;src/models/Query.js -->
<g id="edge5" class="edge">
<title>src/services/query.service.js&#45;&gt;src/models/Query.js</title>
<path fill="none" stroke="#757575" d="M228.38,-38.95C251.89,-34.07 279.99,-28.24 304.62,-23.13"/>
<polygon fill="#757575" stroke="#757575" points="305.5,-26.52 314.58,-21.06 304.08,-19.67 305.5,-26.52"/>
</g>
<!-- src/database/maria.conf.js -->
<g id="node4" class="node">
<title>src/database/maria.conf.js</title>
<path fill="none" stroke="#43d994" d="M622,-60C622,-60 481,-60 481,-60 477.5,-60 474,-56.5 474,-53 474,-53 474,-46 474,-46 474,-42.5 477.5,-39 481,-39 481,-39 622,-39 622,-39 625.5,-39 629,-42.5 629,-46 629,-46 629,-53 629,-53 629,-56.5 625.5,-60 622,-60"/>
<text text-anchor="middle" x="551.5" y="-46.4" font-family="Arial" font-size="12.00" fill="#43d994">src/database/maria.conf.js</text>
</g>
<!-- src/database/mariadb.js&#45;&gt;src/database/maria.conf.js -->
<g id="edge3" class="edge">
<title>src/database/mariadb.js&#45;&gt;src/database/maria.conf.js</title>
<path fill="none" stroke="#757575" d="M438.25,-49.5C446.64,-49.5 455.27,-49.5 463.84,-49.5"/>
<polygon fill="#757575" stroke="#757575" points="463.86,-53 473.86,-49.5 463.86,-46 463.86,-53"/>
</g>
</g>
</svg>
