<?xml version="1.0" encoding="UTF-8" standalone="no"?>
<!DOCTYPE svg PUBLIC "-//W3C//DTD SVG 1.1//EN"
 "http://www.w3.org/Graphics/SVG/1.1/DTD/svg11.dtd">
<!-- Generated by graphviz version 2.43.0 (0)
 -->
<!-- Title: G Pages: 1 -->
<svg width="889pt" height="142pt"
 viewBox="0.00 0.00 889.20 142.20" xmlns="http://www.w3.org/2000/svg" xmlns:xlink="http://www.w3.org/1999/xlink">
<g id="graph0" class="graph" transform="scale(1 1) rotate(0) translate(21.6 120.6)">
<title>G</title>
<polygon fill="#ffffff" stroke="transparent" points="-21.6,21.6 -21.6,-120.6 867.6,-120.6 867.6,21.6 -21.6,21.6"/>
<!-- index.js -->
<g id="node1" class="node">
<title>index.js</title>
<path fill="none" stroke="#254bd7" d="M51,-60C51,-60 7,-60 7,-60 3.5,-60 0,-56.5 0,-53 0,-53 0,-46 0,-46 0,-42.5 3.5,-39 7,-39 7,-39 51,-39 51,-39 54.5,-39 58,-42.5 58,-46 58,-46 58,-53 58,-53 58,-56.5 54.5,-60 51,-60"/>
<text text-anchor="middle" x="29" y="-46.4" font-family="Arial" font-size="12.00" fill="#254bd7">index.js</text>
</g>
<!-- src/controller/query.controller.js -->
<g id="node2" class="node">
<title>src/controller/query.controller.js</title>
<path fill="none" stroke="#254bd7" d="M268,-99C268,-99 101,-99 101,-99 97.5,-99 94,-95.5 94,-92 94,-92 94,-85 94,-85 94,-81.5 97.5,-78 101,-78 101,-78 268,-78 268,-78 271.5,-78 275,-81.5 275,-85 275,-85 275,-92 275,-92 275,-95.5 271.5,-99 268,-99"/>
<text text-anchor="middle" x="184.5" y="-85.4" font-family="Arial" font-size="12.00" fill="#254bd7">src/controller/query.controller.js</text>
</g>
<!-- index.js&#45;&gt;src/controller/query.controller.js -->
<g id="edge1" class="edge">
<title>index.js&#45;&gt;src/controller/query.controller.js</title>
<path fill="none" stroke="#757575" d="M58.24,-58.34C69.34,-61.69 82.22,-65.44 94,-68.5 103.59,-70.99 113.81,-73.46 123.79,-75.76"/>
<polygon fill="#757575" stroke="#757575" points="123.12,-79.19 133.65,-78 124.67,-72.37 123.12,-79.19"/>
</g>
<!-- src/middleware/logger.js -->
<g id="node3" class="node">
<title>src/middleware/logger.js</title>
<path fill="none" stroke="#43d994" d="M250.5,-60C250.5,-60 118.5,-60 118.5,-60 115,-60 111.5,-56.5 111.5,-53 111.5,-53 111.5,-46 111.5,-46 111.5,-42.5 115,-39 118.5,-39 118.5,-39 250.5,-39 250.5,-39 254,-39 257.5,-42.5 257.5,-46 257.5,-46 257.5,-53 257.5,-53 257.5,-56.5 254,-60 250.5,-60"/>
<text text-anchor="middle" x="184.5" y="-46.4" font-family="Arial" font-size="12.00" fill="#43d994">src/middleware/logger.js</text>
</g>
<!-- index.js&#45;&gt;src/middleware/logger.js -->
<g id="edge2" class="edge">
<title>index.js&#45;&gt;src/middleware/logger.js</title>
<path fill="none" stroke="#757575" d="M58.15,-49.5C70.51,-49.5 85.72,-49.5 101.23,-49.5"/>
<polygon fill="#757575" stroke="#757575" points="101.43,-53 111.43,-49.5 101.43,-46 101.43,-53"/>
</g>
<!-- src/services/query.service.js -->
<g id="node4" class="node">
<title>src/services/query.service.js</title>
<path fill="none" stroke="#254bd7" d="M469,-60C469,-60 318,-60 318,-60 314.5,-60 311,-56.5 311,-53 311,-53 311,-46 311,-46 311,-42.5 314.5,-39 318,-39 318,-39 469,-39 469,-39 472.5,-39 476,-42.5 476,-46 476,-46 476,-53 476,-53 476,-56.5 472.5,-60 469,-60"/>
<text text-anchor="middle" x="393.5" y="-46.4" font-family="Arial" font-size="12.00" fill="#254bd7">src/services/query.service.js</text>
</g>
<!-- index.js&#45;&gt;src/services/query.service.js -->
<g id="edge3" class="edge">
<title>index.js&#45;&gt;src/services/query.service.js</title>
<path fill="none" stroke="#757575" d="M57.29,-38.97C68.49,-35.18 81.69,-31.38 94,-29.5 173.52,-17.36 194.84,-22.73 275,-29.5 293.62,-31.07 313.71,-34.02 331.94,-37.19"/>
<polygon fill="#757575" stroke="#757575" points="331.38,-40.64 341.84,-38.96 332.62,-33.75 331.38,-40.64"/>
</g>
<!-- src/controller/query.controller.js&#45;&gt;src/services/query.service.js -->
<g id="edge4" class="edge">
<title>src/controller/query.controller.js&#45;&gt;src/services/query.service.js</title>
<path fill="none" stroke="#757575" d="M241.24,-78C267.59,-73.03 299.22,-67.08 326.72,-61.89"/>
<polygon fill="#757575" stroke="#757575" points="327.48,-65.31 336.66,-60.02 326.18,-58.43 327.48,-65.31"/>
</g>
<!-- src/database/mariadb.js -->
<g id="node6" class="node">
<title>src/database/mariadb.js</title>
<path fill="none" stroke="#254bd7" d="M648,-99C648,-99 519,-99 519,-99 515.5,-99 512,-95.5 512,-92 512,-92 512,-85 512,-85 512,-81.5 515.5,-78 519,-78 519,-78 648,-78 648,-78 651.5,-78 655,-81.5 655,-85 655,-85 655,-92 655,-92 655,-95.5 651.5,-99 648,-99"/>
<text text-anchor="middle" x="583.5" y="-85.4" font-family="Arial" font-size="12.00" fill="#254bd7">src/database/mariadb.js</text>
</g>
<!-- src/services/query.service.js&#45;&gt;src/database/mariadb.js -->
<g id="edge6" class="edge">
<title>src/services/query.service.js&#45;&gt;src/database/mariadb.js</title>
<path fill="none" stroke="#757575" d="M445.38,-60.05C468.89,-64.93 496.99,-70.76 521.62,-75.87"/>
<polygon fill="#757575" stroke="#757575" points="521.08,-79.33 531.58,-77.94 522.5,-72.48 521.08,-79.33"/>
</g>
<!-- src/models/Query.js -->
<g id="node7" class="node">
<title>src/models/Query.js</title>
<path fill="none" stroke="#43d994" d="M637,-60C637,-60 530,-60 530,-60 526.5,-60 523,-56.5 523,-53 523,-53 523,-46 523,-46 523,-42.5 526.5,-39 530,-39 530,-39 637,-39 637,-39 640.5,-39 644,-42.5 644,-46 644,-46 644,-53 644,-53 644,-56.5 640.5,-60 637,-60"/>
<text text-anchor="middle" x="583.5" y="-46.4" font-family="Arial" font-size="12.00" fill="#43d994">src/models/Query.js</text>
</g>
<!-- src/services/query.service.js&#45;&gt;src/models/Query.js -->
<g id="edge7" class="edge">
<title>src/services/query.service.js&#45;&gt;src/models/Query.js</title>
<path fill="none" stroke="#757575" d="M476.14,-49.5C488.25,-49.5 500.64,-49.5 512.48,-49.5"/>
<polygon fill="#757575" stroke="#757575" points="512.73,-53 522.73,-49.5 512.73,-46 512.73,-53"/>
</g>
<!-- src/utils/tools.js -->
<g id="node8" class="node">
<title>src/utils/tools.js</title>
<path fill="none" stroke="#43d994" d="M625.5,-21C625.5,-21 541.5,-21 541.5,-21 538,-21 534.5,-17.5 534.5,-14 534.5,-14 534.5,-7 534.5,-7 534.5,-3.5 538,0 541.5,0 541.5,0 625.5,0 625.5,0 629,0 632.5,-3.5 632.5,-7 632.5,-7 632.5,-14 632.5,-14 632.5,-17.5 629,-21 625.5,-21"/>
<text text-anchor="middle" x="583.5" y="-7.4" font-family="Arial" font-size="12.00" fill="#43d994">src/utils/tools.js</text>
</g>
<!-- src/services/query.service.js&#45;&gt;src/utils/tools.js -->
<g id="edge8" class="edge">
<title>src/services/query.service.js&#45;&gt;src/utils/tools.js</title>
<path fill="none" stroke="#757575" d="M445.38,-38.95C469.86,-33.87 499.32,-27.76 524.65,-22.5"/>
<polygon fill="#757575" stroke="#757575" points="525.42,-25.92 534.5,-20.46 523.99,-19.06 525.42,-25.92"/>
</g>
<!-- src/database/maria.conf.js -->
<g id="node5" class="node">
<title>src/database/maria.conf.js</title>
<path fill="none" stroke="#43d994" d="M839,-99C839,-99 698,-99 698,-99 694.5,-99 691,-95.5 691,-92 691,-92 691,-85 691,-85 691,-81.5 694.5,-78 698,-78 698,-78 839,-78 839,-78 842.5,-78 846,-81.5 846,-85 846,-85 846,-92 846,-92 846,-95.5 842.5,-99 839,-99"/>
<text text-anchor="middle" x="768.5" y="-85.4" font-family="Arial" font-size="12.00" fill="#43d994">src/database/maria.conf.js</text>
</g>
<!-- src/database/mariadb.js&#45;&gt;src/database/maria.conf.js -->
<g id="edge5" class="edge">
<title>src/database/mariadb.js&#45;&gt;src/database/maria.conf.js</title>
<path fill="none" stroke="#757575" d="M655.25,-88.5C663.64,-88.5 672.27,-88.5 680.84,-88.5"/>
<polygon fill="#757575" stroke="#757575" points="680.86,-92 690.86,-88.5 680.86,-85 680.86,-92"/>
</g>
</g>
</svg>
