<?xml version="1.0" encoding="UTF-8" standalone="no"?>
<!DOCTYPE svg PUBLIC "-//W3C//DTD SVG 1.1//EN"
 "http://www.w3.org/Graphics/SVG/1.1/DTD/svg11.dtd">
<!-- Generated by graphviz version 2.43.0 (0)
 -->
<!-- Title: G Pages: 1 -->
<svg width="973pt" height="148pt"
 viewBox="0.00 0.00 973.20 148.20" xmlns="http://www.w3.org/2000/svg" xmlns:xlink="http://www.w3.org/1999/xlink">
<g id="graph0" class="graph" transform="scale(1 1) rotate(0) translate(21.6 126.6)">
<title>G</title>
<polygon fill="#111111" stroke="transparent" points="-21.6,21.6 -21.6,-126.6 951.6,-126.6 951.6,21.6 -21.6,21.6"/>
<!-- index.js -->
<g id="node1" class="node">
<title>index.js</title>
<path fill="none" stroke="#c6c5fe" d="M54.33,-64C54.33,-64 7.67,-64 7.67,-64 3.83,-64 0,-60.17 0,-56.33 0,-56.33 0,-48.67 0,-48.67 0,-44.83 3.83,-41 7.67,-41 7.67,-41 54.33,-41 54.33,-41 58.17,-41 62,-44.83 62,-48.67 62,-48.67 62,-56.33 62,-56.33 62,-60.17 58.17,-64 54.33,-64"/>
<text text-anchor="middle" x="31" y="-48.8" font-family="Arial" font-size="14.00" fill="#c6c5fe">index.js</text>
</g>
<!-- src/controller/query.controller.js -->
<g id="node2" class="node">
<title>src/controller/query.controller.js</title>
<path fill="none" stroke="#c6c5fe" d="M293.33,-105C293.33,-105 105.67,-105 105.67,-105 101.83,-105 98,-101.17 98,-97.33 98,-97.33 98,-89.67 98,-89.67 98,-85.83 101.83,-82 105.67,-82 105.67,-82 293.33,-82 293.33,-82 297.17,-82 301,-85.83 301,-89.67 301,-89.67 301,-97.33 301,-97.33 301,-101.17 297.17,-105 293.33,-105"/>
<text text-anchor="middle" x="199.5" y="-89.8" font-family="Arial" font-size="14.00" fill="#c6c5fe">src/controller/query.controller.js</text>
</g>
<!-- index.js&#45;&gt;src/controller/query.controller.js -->
<g id="edge1" class="edge">
<title>index.js&#45;&gt;src/controller/query.controller.js</title>
<path fill="none" stroke="#757575" d="M62.07,-62.22C73.29,-65.69 86.17,-69.48 98,-72.5 108.01,-75.06 118.64,-77.53 129.1,-79.83"/>
<polygon fill="#757575" stroke="#757575" points="128.53,-83.29 139.05,-81.98 130.01,-76.45 128.53,-83.29"/>
</g>
<!-- src/middleware/logger.js -->
<g id="node3" class="node">
<title>src/middleware/logger.js</title>
<path fill="none" stroke="#cfffac" d="M272.83,-64C272.83,-64 126.17,-64 126.17,-64 122.33,-64 118.5,-60.17 118.5,-56.33 118.5,-56.33 118.5,-48.67 118.5,-48.67 118.5,-44.83 122.33,-41 126.17,-41 126.17,-41 272.83,-41 272.83,-41 276.67,-41 280.5,-44.83 280.5,-48.67 280.5,-48.67 280.5,-56.33 280.5,-56.33 280.5,-60.17 276.67,-64 272.83,-64"/>
<text text-anchor="middle" x="199.5" y="-48.8" font-family="Arial" font-size="14.00" fill="#cfffac">src/middleware/logger.js</text>
</g>
<!-- index.js&#45;&gt;src/middleware/logger.js -->
<g id="edge2" class="edge">
<title>index.js&#45;&gt;src/middleware/logger.js</title>
<path fill="none" stroke="#757575" d="M62.15,-52.5C75.27,-52.5 91.4,-52.5 107.92,-52.5"/>
<polygon fill="#757575" stroke="#757575" points="108.23,-56 118.23,-52.5 108.23,-49 108.23,-56"/>
</g>
<!-- src/services/query.service.js -->
<g id="node4" class="node">
<title>src/services/query.service.js</title>
<path fill="none" stroke="#c6c5fe" d="M514.33,-64C514.33,-64 344.67,-64 344.67,-64 340.83,-64 337,-60.17 337,-56.33 337,-56.33 337,-48.67 337,-48.67 337,-44.83 340.83,-41 344.67,-41 344.67,-41 514.33,-41 514.33,-41 518.17,-41 522,-44.83 522,-48.67 522,-48.67 522,-56.33 522,-56.33 522,-60.17 518.17,-64 514.33,-64"/>
<text text-anchor="middle" x="429.5" y="-48.8" font-family="Arial" font-size="14.00" fill="#c6c5fe">src/services/query.service.js</text>
</g>
<!-- index.js&#45;&gt;src/services/query.service.js -->
<g id="edge3" class="edge">
<title>index.js&#45;&gt;src/services/query.service.js</title>
<path fill="none" stroke="#757575" d="M61.43,-41C72.69,-37.17 85.76,-33.4 98,-31.5 187.15,-17.66 211.08,-24.14 301,-31.5 320.61,-33.1 341.75,-36.07 361.07,-39.29"/>
<polygon fill="#757575" stroke="#757575" points="360.54,-42.75 370.99,-40.98 361.72,-35.85 360.54,-42.75"/>
</g>
<!-- src/controller/query.controller.js&#45;&gt;src/services/query.service.js -->
<g id="edge4" class="edge">
<title>src/controller/query.controller.js&#45;&gt;src/services/query.service.js</title>
<path fill="none" stroke="#757575" d="M264.62,-81.97C292.54,-76.95 325.44,-71.03 354.4,-65.82"/>
<polygon fill="#757575" stroke="#757575" points="355.25,-69.23 364.47,-64.01 354.01,-62.34 355.25,-69.23"/>
</g>
<!-- src/database/mariadb.js -->
<g id="node6" class="node">
<title>src/database/mariadb.js</title>
<path fill="none" stroke="#c6c5fe" d="M711.33,-105C711.33,-105 565.67,-105 565.67,-105 561.83,-105 558,-101.17 558,-97.33 558,-97.33 558,-89.67 558,-89.67 558,-85.83 561.83,-82 565.67,-82 565.67,-82 711.33,-82 711.33,-82 715.17,-82 719,-85.83 719,-89.67 719,-89.67 719,-97.33 719,-97.33 719,-101.17 715.17,-105 711.33,-105"/>
<text text-anchor="middle" x="638.5" y="-89.8" font-family="Arial" font-size="14.00" fill="#c6c5fe">src/database/mariadb.js</text>
</g>
<!-- src/services/query.service.js&#45;&gt;src/database/mariadb.js -->
<g id="edge6" class="edge">
<title>src/services/query.service.js&#45;&gt;src/database/mariadb.js</title>
<path fill="none" stroke="#757575" d="M488.71,-64.03C513.84,-69.01 543.41,-74.86 569.54,-80.04"/>
<polygon fill="#757575" stroke="#757575" points="568.88,-83.48 579.37,-81.99 570.24,-76.61 568.88,-83.48"/>
</g>
<!-- src/models/Query.js -->
<g id="node7" class="node">
<title>src/models/Query.js</title>
<path fill="none" stroke="#cfffac" d="M699.33,-64C699.33,-64 577.67,-64 577.67,-64 573.83,-64 570,-60.17 570,-56.33 570,-56.33 570,-48.67 570,-48.67 570,-44.83 573.83,-41 577.67,-41 577.67,-41 699.33,-41 699.33,-41 703.17,-41 707,-44.83 707,-48.67 707,-48.67 707,-56.33 707,-56.33 707,-60.17 703.17,-64 699.33,-64"/>
<text text-anchor="middle" x="638.5" y="-48.8" font-family="Arial" font-size="14.00" fill="#cfffac">src/models/Query.js</text>
</g>
<!-- src/services/query.service.js&#45;&gt;src/models/Query.js -->
<g id="edge7" class="edge">
<title>src/services/query.service.js&#45;&gt;src/models/Query.js</title>
<path fill="none" stroke="#757575" d="M522.2,-52.5C534.7,-52.5 547.44,-52.5 559.66,-52.5"/>
<polygon fill="#757575" stroke="#757575" points="559.8,-56 569.8,-52.5 559.8,-49 559.8,-56"/>
</g>
<!-- src/utils/tools.js -->
<g id="node8" class="node">
<title>src/utils/tools.js</title>
<path fill="none" stroke="#cfffac" d="M684.83,-23C684.83,-23 592.17,-23 592.17,-23 588.33,-23 584.5,-19.17 584.5,-15.33 584.5,-15.33 584.5,-7.67 584.5,-7.67 584.5,-3.83 588.33,0 592.17,0 592.17,0 684.83,0 684.83,0 688.67,0 692.5,-3.83 692.5,-7.67 692.5,-7.67 692.5,-15.33 692.5,-15.33 692.5,-19.17 688.67,-23 684.83,-23"/>
<text text-anchor="middle" x="638.5" y="-7.8" font-family="Arial" font-size="14.00" fill="#cfffac">src/utils/tools.js</text>
</g>
<!-- src/services/query.service.js&#45;&gt;src/utils/tools.js -->
<g id="edge8" class="edge">
<title>src/services/query.service.js&#45;&gt;src/utils/tools.js</title>
<path fill="none" stroke="#757575" d="M488.71,-40.97C515.44,-35.68 547.2,-29.39 574.49,-23.98"/>
<polygon fill="#757575" stroke="#757575" points="575.2,-27.41 584.33,-22.03 573.84,-20.54 575.2,-27.41"/>
</g>
<!-- src/database/maria.conf.js -->
<g id="node5" class="node">
<title>src/database/maria.conf.js</title>
<path fill="none" stroke="#cfffac" d="M922.33,-105C922.33,-105 762.67,-105 762.67,-105 758.83,-105 755,-101.17 755,-97.33 755,-97.33 755,-89.67 755,-89.67 755,-85.83 758.83,-82 762.67,-82 762.67,-82 922.33,-82 922.33,-82 926.17,-82 930,-85.83 930,-89.67 930,-89.67 930,-97.33 930,-97.33 930,-101.17 926.17,-105 922.33,-105"/>
<text text-anchor="middle" x="842.5" y="-89.8" font-family="Arial" font-size="14.00" fill="#cfffac">src/database/maria.conf.js</text>
</g>
<!-- src/database/mariadb.js&#45;&gt;src/database/maria.conf.js -->
<g id="edge5" class="edge">
<title>src/database/mariadb.js&#45;&gt;src/database/maria.conf.js</title>
<path fill="none" stroke="#757575" d="M719.05,-93.5C727.46,-93.5 736.08,-93.5 744.66,-93.5"/>
<polygon fill="#757575" stroke="#757575" points="744.69,-97 754.69,-93.5 744.69,-90 744.69,-97"/>
</g>
</g>
</svg>
