<?xml version="1.0" encoding="UTF-8" standalone="no"?>
<!DOCTYPE svg PUBLIC "-//W3C//DTD SVG 1.1//EN"
 "http://www.w3.org/Graphics/SVG/1.1/DTD/svg11.dtd">
<!-- Generated by graphviz version 2.43.0 (0)
 -->
<!-- Title: G Pages: 1 -->
<svg width="760pt" height="195pt"
 viewBox="0.00 0.00 760.20 195.45" xmlns="http://www.w3.org/2000/svg" xmlns:xlink="http://www.w3.org/1999/xlink">
<g id="graph0" class="graph" transform="scale(1 1) rotate(0) translate(21.6 173.85)">
<title>G</title>
<polygon fill="#ffffff" stroke="transparent" points="-21.6,21.6 -21.6,-173.85 738.6,-173.85 738.6,21.6 -21.6,21.6"/>
<!-- api.js -->
<g id="node1" class="node">
<title>api.js</title>
<path fill="none" stroke="#254bd7" d="M47,-74.25C47,-74.25 7,-74.25 7,-74.25 3.5,-74.25 0,-70.75 0,-67.25 0,-67.25 0,-60.25 0,-60.25 0,-56.75 3.5,-53.25 7,-53.25 7,-53.25 47,-53.25 47,-53.25 50.5,-53.25 54,-56.75 54,-60.25 54,-60.25 54,-67.25 54,-67.25 54,-70.75 50.5,-74.25 47,-74.25"/>
<text text-anchor="middle" x="27" y="-60.65" font-family="Arial" font-size="12.00" fill="#254bd7">api.js</text>
</g>
<!-- controller/ips.controller.js -->
<g id="node2" class="node">
<title>controller/ips.controller.js</title>
<path fill="none" stroke="#254bd7" d="M235,-123.25C235,-123.25 100,-123.25 100,-123.25 96.5,-123.25 93,-119.75 93,-116.25 93,-116.25 93,-109.25 93,-109.25 93,-105.75 96.5,-102.25 100,-102.25 100,-102.25 235,-102.25 235,-102.25 238.5,-102.25 242,-105.75 242,-109.25 242,-109.25 242,-116.25 242,-116.25 242,-119.75 238.5,-123.25 235,-123.25"/>
<text text-anchor="middle" x="167.5" y="-109.65" font-family="Arial" font-size="12.00" fill="#254bd7">controller/ips.controller.js</text>
</g>
<!-- api.js&#45;&gt;controller/ips.controller.js -->
<g id="edge1" class="edge">
<title>api.js&#45;&gt;controller/ips.controller.js</title>
<path fill="none" stroke="#757575" d="M54.05,-72.97C74.62,-80.25 103.66,-90.52 127.07,-98.8"/>
<polygon fill="#757575" stroke="#757575" points="126.12,-102.18 136.72,-102.22 128.46,-95.58 126.12,-102.18"/>
</g>
<!-- controller/user.controller.js -->
<g id="node3" class="node">
<title>controller/user.controller.js</title>
<path fill="none" stroke="#254bd7" d="M238,-74.25C238,-74.25 97,-74.25 97,-74.25 93.5,-74.25 90,-70.75 90,-67.25 90,-67.25 90,-60.25 90,-60.25 90,-56.75 93.5,-53.25 97,-53.25 97,-53.25 238,-53.25 238,-53.25 241.5,-53.25 245,-56.75 245,-60.25 245,-60.25 245,-67.25 245,-67.25 245,-70.75 241.5,-74.25 238,-74.25"/>
<text text-anchor="middle" x="167.5" y="-60.65" font-family="Arial" font-size="12.00" fill="#254bd7">controller/user.controller.js</text>
</g>
<!-- api.js&#45;&gt;controller/user.controller.js -->
<g id="edge2" class="edge">
<title>api.js&#45;&gt;controller/user.controller.js</title>
<path fill="none" stroke="#757575" d="M54.05,-63.75C61.65,-63.75 70.4,-63.75 79.59,-63.75"/>
<polygon fill="#757575" stroke="#757575" points="79.71,-67.25 89.71,-63.75 79.71,-60.25 79.71,-67.25"/>
</g>
<!-- utils/tools.js -->
<g id="node4" class="node">
<title>utils/tools.js</title>
<path fill="none" stroke="#43d994" d="M710,-35.25C710,-35.25 645,-35.25 645,-35.25 641.5,-35.25 638,-31.75 638,-28.25 638,-28.25 638,-21.25 638,-21.25 638,-17.75 641.5,-14.25 645,-14.25 645,-14.25 710,-14.25 710,-14.25 713.5,-14.25 717,-17.75 717,-21.25 717,-21.25 717,-28.25 717,-28.25 717,-31.75 713.5,-35.25 710,-35.25"/>
<text text-anchor="middle" x="677.5" y="-21.65" font-family="Arial" font-size="12.00" fill="#43d994">utils/tools.js</text>
</g>
<!-- api.js&#45;&gt;utils/tools.js -->
<g id="edge3" class="edge">
<title>api.js&#45;&gt;utils/tools.js</title>
<path fill="none" stroke="#757575" d="M54.23,-53.97C65.15,-50.24 78.05,-46.29 90,-43.75 250.46,-9.73 293.2,-13.43 457,-4.75 521.35,-1.34 538.11,3.67 602,-4.75 612.77,-6.17 624.19,-8.7 634.77,-11.49"/>
<polygon fill="#757575" stroke="#757575" points="634.03,-14.92 644.6,-14.22 635.9,-8.17 634.03,-14.92"/>
</g>
<!-- services/ips.service.js -->
<g id="node5" class="node">
<title>services/ips.service.js</title>
<path fill="none" stroke="#254bd7" d="M410.5,-142.25C410.5,-142.25 291.5,-142.25 291.5,-142.25 288,-142.25 284.5,-138.75 284.5,-135.25 284.5,-135.25 284.5,-128.25 284.5,-128.25 284.5,-124.75 288,-121.25 291.5,-121.25 291.5,-121.25 410.5,-121.25 410.5,-121.25 414,-121.25 417.5,-124.75 417.5,-128.25 417.5,-128.25 417.5,-135.25 417.5,-135.25 417.5,-138.75 414,-142.25 410.5,-142.25"/>
<text text-anchor="middle" x="351" y="-128.65" font-family="Arial" font-size="12.00" fill="#254bd7">services/ips.service.js</text>
</g>
<!-- controller/ips.controller.js&#45;&gt;services/ips.service.js -->
<g id="edge4" class="edge">
<title>controller/ips.controller.js&#45;&gt;services/ips.service.js</title>
<path fill="none" stroke="#757575" d="M242.06,-120.45C252.64,-121.56 263.53,-122.7 274.15,-123.81"/>
<polygon fill="#757575" stroke="#757575" points="273.91,-127.31 284.22,-124.87 274.64,-120.34 273.91,-127.31"/>
</g>
<!-- services/user.service.js -->
<g id="node6" class="node">
<title>services/user.service.js</title>
<path fill="none" stroke="#254bd7" d="M414,-74.25C414,-74.25 288,-74.25 288,-74.25 284.5,-74.25 281,-70.75 281,-67.25 281,-67.25 281,-60.25 281,-60.25 281,-56.75 284.5,-53.25 288,-53.25 288,-53.25 414,-53.25 414,-53.25 417.5,-53.25 421,-56.75 421,-60.25 421,-60.25 421,-67.25 421,-67.25 421,-70.75 417.5,-74.25 414,-74.25"/>
<text text-anchor="middle" x="351" y="-60.65" font-family="Arial" font-size="12.00" fill="#254bd7">services/user.service.js</text>
</g>
<!-- controller/user.controller.js&#45;&gt;services/user.service.js -->
<g id="edge5" class="edge">
<title>controller/user.controller.js&#45;&gt;services/user.service.js</title>
<path fill="none" stroke="#757575" d="M245.21,-63.75C253.6,-63.75 262.16,-63.75 270.58,-63.75"/>
<polygon fill="#757575" stroke="#757575" points="270.77,-67.25 280.77,-63.75 270.77,-60.25 270.77,-67.25"/>
</g>
<!-- models/ips.js -->
<g id="node8" class="node">
<title>models/ips.js</title>
<path fill="none" stroke="#43d994" d="M565.5,-152.25C565.5,-152.25 493.5,-152.25 493.5,-152.25 490,-152.25 486.5,-148.75 486.5,-145.25 486.5,-145.25 486.5,-138.25 486.5,-138.25 486.5,-134.75 490,-131.25 493.5,-131.25 493.5,-131.25 565.5,-131.25 565.5,-131.25 569,-131.25 572.5,-134.75 572.5,-138.25 572.5,-138.25 572.5,-145.25 572.5,-145.25 572.5,-148.75 569,-152.25 565.5,-152.25"/>
<text text-anchor="middle" x="529.5" y="-138.65" font-family="Arial" font-size="12.00" fill="#43d994">models/ips.js</text>
</g>
<!-- services/ips.service.js&#45;&gt;models/ips.js -->
<g id="edge7" class="edge">
<title>services/ips.service.js&#45;&gt;models/ips.js</title>
<path fill="none" stroke="#757575" d="M417.72,-135.48C436.98,-136.57 457.78,-137.75 476.09,-138.78"/>
<polygon fill="#757575" stroke="#757575" points="476.09,-142.29 486.27,-139.36 476.49,-135.3 476.09,-142.29"/>
</g>
<!-- services/user.service.js&#45;&gt;utils/tools.js -->
<g id="edge10" class="edge">
<title>services/user.service.js&#45;&gt;utils/tools.js</title>
<path fill="none" stroke="#757575" d="M383.83,-74.33C432.37,-88.7 527.16,-109.8 602,-83.75 625.14,-75.7 646.5,-57.14 660.36,-42.97"/>
<polygon fill="#757575" stroke="#757575" points="662.95,-45.32 667.26,-35.64 657.85,-40.53 662.95,-45.32"/>
</g>
<!-- models/User.js -->
<g id="node7" class="node">
<title>models/User.js</title>
<path fill="none" stroke="#43d994" d="M570,-74.25C570,-74.25 489,-74.25 489,-74.25 485.5,-74.25 482,-70.75 482,-67.25 482,-67.25 482,-60.25 482,-60.25 482,-56.75 485.5,-53.25 489,-53.25 489,-53.25 570,-53.25 570,-53.25 573.5,-53.25 577,-56.75 577,-60.25 577,-60.25 577,-67.25 577,-67.25 577,-70.75 573.5,-74.25 570,-74.25"/>
<text text-anchor="middle" x="529.5" y="-60.65" font-family="Arial" font-size="12.00" fill="#43d994">models/User.js</text>
</g>
<!-- services/user.service.js&#45;&gt;models/User.js -->
<g id="edge8" class="edge">
<title>services/user.service.js&#45;&gt;models/User.js</title>
<path fill="none" stroke="#757575" d="M421.25,-63.75C437.89,-63.75 455.47,-63.75 471.48,-63.75"/>
<polygon fill="#757575" stroke="#757575" points="471.75,-67.25 481.75,-63.75 471.75,-60.25 471.75,-67.25"/>
</g>
<!-- models/proxyRequest.js -->
<g id="node9" class="node">
<title>models/proxyRequest.js</title>
<path fill="none" stroke="#254bd7" d="M595,-35.25C595,-35.25 464,-35.25 464,-35.25 460.5,-35.25 457,-31.75 457,-28.25 457,-28.25 457,-21.25 457,-21.25 457,-17.75 460.5,-14.25 464,-14.25 464,-14.25 595,-14.25 595,-14.25 598.5,-14.25 602,-17.75 602,-21.25 602,-21.25 602,-28.25 602,-28.25 602,-31.75 598.5,-35.25 595,-35.25"/>
<text text-anchor="middle" x="529.5" y="-21.65" font-family="Arial" font-size="12.00" fill="#254bd7">models/proxyRequest.js</text>
</g>
<!-- services/user.service.js&#45;&gt;models/proxyRequest.js -->
<g id="edge9" class="edge">
<title>services/user.service.js&#45;&gt;models/proxyRequest.js</title>
<path fill="none" stroke="#757575" d="M399.76,-53.2C421.64,-48.36 447.76,-42.59 470.73,-37.52"/>
<polygon fill="#757575" stroke="#757575" points="471.69,-40.89 480.7,-35.31 470.18,-34.05 471.69,-40.89"/>
</g>
<!-- models/proxyRequest.js&#45;&gt;utils/tools.js -->
<g id="edge6" class="edge">
<title>models/proxyRequest.js&#45;&gt;utils/tools.js</title>
<path fill="none" stroke="#757575" d="M602.22,-24.75C610.84,-24.75 619.48,-24.75 627.67,-24.75"/>
<polygon fill="#757575" stroke="#757575" points="627.76,-28.25 637.76,-24.75 627.76,-21.25 627.76,-28.25"/>
</g>
</g>
</svg>
