<?xml version="1.0" encoding="UTF-8" standalone="no"?>
<!DOCTYPE svg PUBLIC "-//W3C//DTD SVG 1.1//EN"
 "http://www.w3.org/Graphics/SVG/1.1/DTD/svg11.dtd">
<!-- Generated by graphviz version 2.43.0 (0)
 -->
<!-- Title: G Pages: 1 -->
<svg width="672pt" height="142pt"
 viewBox="0.00 0.00 672.20 142.20" xmlns="http://www.w3.org/2000/svg" xmlns:xlink="http://www.w3.org/1999/xlink">
<g id="graph0" class="graph" transform="scale(1 1) rotate(0) translate(21.6 120.6)">
<title>G</title>
<polygon fill="#ffffff" stroke="transparent" points="-21.6,21.6 -21.6,-120.6 650.6,-120.6 650.6,21.6 -21.6,21.6"/>
<!-- index.js -->
<g id="node1" class="node">
<title>index.js</title>
<path fill="none" stroke="#254bd7" d="M51,-79C51,-79 7,-79 7,-79 3.5,-79 0,-75.5 0,-72 0,-72 0,-65 0,-65 0,-61.5 3.5,-58 7,-58 7,-58 51,-58 51,-58 54.5,-58 58,-61.5 58,-65 58,-65 58,-72 58,-72 58,-75.5 54.5,-79 51,-79"/>
<text text-anchor="middle" x="29" y="-65.4" font-family="Arial" font-size="12.00" fill="#254bd7">index.js</text>
</g>
<!-- src/models/Queue.js -->
<g id="node2" class="node">
<title>src/models/Queue.js</title>
<path fill="none" stroke="#43d994" d="M232,-99C232,-99 121,-99 121,-99 117.5,-99 114,-95.5 114,-92 114,-92 114,-85 114,-85 114,-81.5 117.5,-78 121,-78 121,-78 232,-78 232,-78 235.5,-78 239,-81.5 239,-85 239,-85 239,-92 239,-92 239,-95.5 235.5,-99 232,-99"/>
<text text-anchor="middle" x="176.5" y="-85.4" font-family="Arial" font-size="12.00" fill="#43d994">src/models/Queue.js</text>
</g>
<!-- index.js&#45;&gt;src/models/Queue.js -->
<g id="edge1" class="edge">
<title>index.js&#45;&gt;src/models/Queue.js</title>
<path fill="none" stroke="#757575" d="M58.05,-72.36C71.18,-74.16 87.49,-76.4 103.72,-78.63"/>
<polygon fill="#757575" stroke="#757575" points="103.41,-82.12 113.79,-80.02 104.36,-75.19 103.41,-82.12"/>
</g>
<!-- src/services/query.service.js -->
<g id="node3" class="node">
<title>src/services/query.service.js</title>
<path fill="none" stroke="#254bd7" d="M252,-60C252,-60 101,-60 101,-60 97.5,-60 94,-56.5 94,-53 94,-53 94,-46 94,-46 94,-42.5 97.5,-39 101,-39 101,-39 252,-39 252,-39 255.5,-39 259,-42.5 259,-46 259,-46 259,-53 259,-53 259,-56.5 255.5,-60 252,-60"/>
<text text-anchor="middle" x="176.5" y="-46.4" font-family="Arial" font-size="12.00" fill="#254bd7">src/services/query.service.js</text>
</g>
<!-- index.js&#45;&gt;src/services/query.service.js -->
<g id="edge2" class="edge">
<title>index.js&#45;&gt;src/services/query.service.js</title>
<path fill="none" stroke="#757575" d="M58.05,-64.84C66.02,-63.8 75.16,-62.6 84.74,-61.35"/>
<polygon fill="#757575" stroke="#757575" points="85.39,-64.8 94.85,-60.03 84.48,-57.86 85.39,-64.8"/>
</g>
<!-- src/database/mariadb.js -->
<g id="node5" class="node">
<title>src/database/mariadb.js</title>
<path fill="none" stroke="#254bd7" d="M431,-99C431,-99 302,-99 302,-99 298.5,-99 295,-95.5 295,-92 295,-92 295,-85 295,-85 295,-81.5 298.5,-78 302,-78 302,-78 431,-78 431,-78 434.5,-78 438,-81.5 438,-85 438,-85 438,-92 438,-92 438,-95.5 434.5,-99 431,-99"/>
<text text-anchor="middle" x="366.5" y="-85.4" font-family="Arial" font-size="12.00" fill="#254bd7">src/database/mariadb.js</text>
</g>
<!-- src/services/query.service.js&#45;&gt;src/database/mariadb.js -->
<g id="edge4" class="edge">
<title>src/services/query.service.js&#45;&gt;src/database/mariadb.js</title>
<path fill="none" stroke="#757575" d="M228.38,-60.05C251.89,-64.93 279.99,-70.76 304.62,-75.87"/>
<polygon fill="#757575" stroke="#757575" points="304.08,-79.33 314.58,-77.94 305.5,-72.48 304.08,-79.33"/>
</g>
<!-- src/models/Query.js -->
<g id="node6" class="node">
<title>src/models/Query.js</title>
<path fill="none" stroke="#43d994" d="M420,-60C420,-60 313,-60 313,-60 309.5,-60 306,-56.5 306,-53 306,-53 306,-46 306,-46 306,-42.5 309.5,-39 313,-39 313,-39 420,-39 420,-39 423.5,-39 427,-42.5 427,-46 427,-46 427,-53 427,-53 427,-56.5 423.5,-60 420,-60"/>
<text text-anchor="middle" x="366.5" y="-46.4" font-family="Arial" font-size="12.00" fill="#43d994">src/models/Query.js</text>
</g>
<!-- src/services/query.service.js&#45;&gt;src/models/Query.js -->
<g id="edge5" class="edge">
<title>src/services/query.service.js&#45;&gt;src/models/Query.js</title>
<path fill="none" stroke="#757575" d="M259.14,-49.5C271.25,-49.5 283.64,-49.5 295.48,-49.5"/>
<polygon fill="#757575" stroke="#757575" points="295.73,-53 305.73,-49.5 295.73,-46 295.73,-53"/>
</g>
<!-- src/utils/tools.js -->
<g id="node7" class="node">
<title>src/utils/tools.js</title>
<path fill="none" stroke="#43d994" d="M408.5,-21C408.5,-21 324.5,-21 324.5,-21 321,-21 317.5,-17.5 317.5,-14 317.5,-14 317.5,-7 317.5,-7 317.5,-3.5 321,0 324.5,0 324.5,0 408.5,0 408.5,0 412,0 415.5,-3.5 415.5,-7 415.5,-7 415.5,-14 415.5,-14 415.5,-17.5 412,-21 408.5,-21"/>
<text text-anchor="middle" x="366.5" y="-7.4" font-family="Arial" font-size="12.00" fill="#43d994">src/utils/tools.js</text>
</g>
<!-- src/services/query.service.js&#45;&gt;src/utils/tools.js -->
<g id="edge6" class="edge">
<title>src/services/query.service.js&#45;&gt;src/utils/tools.js</title>
<path fill="none" stroke="#757575" d="M228.38,-38.95C252.86,-33.87 282.32,-27.76 307.65,-22.5"/>
<polygon fill="#757575" stroke="#757575" points="308.42,-25.92 317.5,-20.46 306.99,-19.06 308.42,-25.92"/>
</g>
<!-- src/database/maria.conf.js -->
<g id="node4" class="node">
<title>src/database/maria.conf.js</title>
<path fill="none" stroke="#43d994" d="M622,-99C622,-99 481,-99 481,-99 477.5,-99 474,-95.5 474,-92 474,-92 474,-85 474,-85 474,-81.5 477.5,-78 481,-78 481,-78 622,-78 622,-78 625.5,-78 629,-81.5 629,-85 629,-85 629,-92 629,-92 629,-95.5 625.5,-99 622,-99"/>
<text text-anchor="middle" x="551.5" y="-85.4" font-family="Arial" font-size="12.00" fill="#43d994">src/database/maria.conf.js</text>
</g>
<!-- src/database/mariadb.js&#45;&gt;src/database/maria.conf.js -->
<g id="edge3" class="edge">
<title>src/database/mariadb.js&#45;&gt;src/database/maria.conf.js</title>
<path fill="none" stroke="#757575" d="M438.25,-88.5C446.64,-88.5 455.27,-88.5 463.84,-88.5"/>
<polygon fill="#757575" stroke="#757575" points="463.86,-92 473.86,-88.5 463.86,-85 463.86,-92"/>
</g>
</g>
</svg>
