<?xml version="1.0" encoding="UTF-8" standalone="no"?>
<!DOCTYPE svg PUBLIC "-//W3C//DTD SVG 1.1//EN"
 "http://www.w3.org/Graphics/SVG/1.1/DTD/svg11.dtd">
<!-- Generated by graphviz version 2.43.0 (0)
 -->
<!-- Title: G Pages: 1 -->
<svg width="101pt" height="64pt"
 viewBox="0.00 0.00 101.20 64.20" xmlns="http://www.w3.org/2000/svg" xmlns:xlink="http://www.w3.org/1999/xlink">
<g id="graph0" class="graph" transform="scale(1 1) rotate(0) translate(21.6 42.6)">
<title>G</title>
<polygon fill="#ffffff" stroke="transparent" points="-21.6,21.6 -21.6,-42.6 79.6,-42.6 79.6,21.6 -21.6,21.6"/>
<!-- index.js -->
<g id="node1" class="node">
<title>index.js</title>
<path fill="none" stroke="#43d994" d="M51,-21C51,-21 7,-21 7,-21 3.5,-21 0,-17.5 0,-14 0,-14 0,-7 0,-7 0,-3.5 3.5,0 7,0 7,0 51,0 51,0 54.5,0 58,-3.5 58,-7 58,-7 58,-14 58,-14 58,-17.5 54.5,-21 51,-21"/>
<text text-anchor="middle" x="29" y="-7.4" font-family="Arial" font-size="12.00" fill="#43d994">index.js</text>
</g>
</g>
</svg>
