<?xml version="1.0" encoding="UTF-8" standalone="no"?>
<!DOCTYPE svg PUBLIC "-//W3C//DTD SVG 1.1//EN"
 "http://www.w3.org/Graphics/SVG/1.1/DTD/svg11.dtd">
<!-- Generated by graphviz version 2.43.0 (0)
 -->
<!-- Title: G Pages: 1 -->
<svg width="672pt" height="181pt"
 viewBox="0.00 0.00 672.20 181.20" xmlns="http://www.w3.org/2000/svg" xmlns:xlink="http://www.w3.org/1999/xlink">
<g id="graph0" class="graph" transform="scale(1 1) rotate(0) translate(21.6 159.6)">
<title>G</title>
<polygon fill="#ffffff" stroke="transparent" points="-21.6,21.6 -21.6,-159.6 650.6,-159.6 650.6,21.6 -21.6,21.6"/>
<!-- index.js -->
<g id="node1" class="node">
<title>index.js</title>
<path fill="none" stroke="#254bd7" d="M51,-99C51,-99 7,-99 7,-99 3.5,-99 0,-95.5 0,-92 0,-92 0,-85 0,-85 0,-81.5 3.5,-78 7,-78 7,-78 51,-78 51,-78 54.5,-78 58,-81.5 58,-85 58,-85 58,-92 58,-92 58,-95.5 54.5,-99 51,-99"/>
<text text-anchor="middle" x="29" y="-85.4" font-family="Arial" font-size="12.00" fill="#254bd7">index.js</text>
</g>
<!-- src/models/Queue.js -->
<g id="node2" class="node">
<title>src/models/Queue.js</title>
<path fill="none" stroke="#43d994" d="M232,-138C232,-138 121,-138 121,-138 117.5,-138 114,-134.5 114,-131 114,-131 114,-124 114,-124 114,-120.5 117.5,-117 121,-117 121,-117 232,-117 232,-117 235.5,-117 239,-120.5 239,-124 239,-124 239,-131 239,-131 239,-134.5 235.5,-138 232,-138"/>
<text text-anchor="middle" x="176.5" y="-124.4" font-family="Arial" font-size="12.00" fill="#43d994">src/models/Queue.js</text>
</g>
<!-- index.js&#45;&gt;src/models/Queue.js -->
<g id="edge1" class="edge">
<title>index.js&#45;&gt;src/models/Queue.js</title>
<path fill="none" stroke="#757575" d="M58.05,-96.02C77.4,-101.21 103.64,-108.24 126.41,-114.34"/>
<polygon fill="#757575" stroke="#757575" points="125.69,-117.77 136.26,-116.98 127.5,-111.01 125.69,-117.77"/>
</g>
<!-- src/services/query.service.js -->
<g id="node3" class="node">
<title>src/services/query.service.js</title>
<path fill="none" stroke="#254bd7" d="M252,-60C252,-60 101,-60 101,-60 97.5,-60 94,-56.5 94,-53 94,-53 94,-46 94,-46 94,-42.5 97.5,-39 101,-39 101,-39 252,-39 252,-39 255.5,-39 259,-42.5 259,-46 259,-46 259,-53 259,-53 259,-56.5 255.5,-60 252,-60"/>
<text text-anchor="middle" x="176.5" y="-46.4" font-family="Arial" font-size="12.00" fill="#254bd7">src/services/query.service.js</text>
</g>
<!-- index.js&#45;&gt;src/services/query.service.js -->
<g id="edge2" class="edge">
<title>index.js&#45;&gt;src/services/query.service.js</title>
<path fill="none" stroke="#757575" d="M58.05,-80.98C77.4,-75.79 103.64,-68.76 126.41,-62.66"/>
<polygon fill="#757575" stroke="#757575" points="127.5,-65.99 136.26,-60.02 125.69,-59.23 127.5,-65.99"/>
</g>
<!-- src/utils/tools.js -->
<g id="node4" class="node">
<title>src/utils/tools.js</title>
<path fill="none" stroke="#43d994" d="M408.5,-99C408.5,-99 324.5,-99 324.5,-99 321,-99 317.5,-95.5 317.5,-92 317.5,-92 317.5,-85 317.5,-85 317.5,-81.5 321,-78 324.5,-78 324.5,-78 408.5,-78 408.5,-78 412,-78 415.5,-81.5 415.5,-85 415.5,-85 415.5,-92 415.5,-92 415.5,-95.5 412,-99 408.5,-99"/>
<text text-anchor="middle" x="366.5" y="-85.4" font-family="Arial" font-size="12.00" fill="#43d994">src/utils/tools.js</text>
</g>
<!-- index.js&#45;&gt;src/utils/tools.js -->
<g id="edge3" class="edge">
<title>index.js&#45;&gt;src/utils/tools.js</title>
<path fill="none" stroke="#757575" d="M58.03,-88.5C112.59,-88.5 234.1,-88.5 306.97,-88.5"/>
<polygon fill="#757575" stroke="#757575" points="307.36,-92 317.36,-88.5 307.36,-85 307.36,-92"/>
</g>
<!-- src/services/query.service.js&#45;&gt;src/utils/tools.js -->
<g id="edge7" class="edge">
<title>src/services/query.service.js&#45;&gt;src/utils/tools.js</title>
<path fill="none" stroke="#757575" d="M228.38,-60.05C252.86,-65.13 282.32,-71.24 307.65,-76.5"/>
<polygon fill="#757575" stroke="#757575" points="306.99,-79.94 317.5,-78.54 308.42,-73.08 306.99,-79.94"/>
</g>
<!-- src/database/mariadb.js -->
<g id="node6" class="node">
<title>src/database/mariadb.js</title>
<path fill="none" stroke="#254bd7" d="M431,-60C431,-60 302,-60 302,-60 298.5,-60 295,-56.5 295,-53 295,-53 295,-46 295,-46 295,-42.5 298.5,-39 302,-39 302,-39 431,-39 431,-39 434.5,-39 438,-42.5 438,-46 438,-46 438,-53 438,-53 438,-56.5 434.5,-60 431,-60"/>
<text text-anchor="middle" x="366.5" y="-46.4" font-family="Arial" font-size="12.00" fill="#254bd7">src/database/mariadb.js</text>
</g>
<!-- src/services/query.service.js&#45;&gt;src/database/mariadb.js -->
<g id="edge5" class="edge">
<title>src/services/query.service.js&#45;&gt;src/database/mariadb.js</title>
<path fill="none" stroke="#757575" d="M259.14,-49.5C267.59,-49.5 276.18,-49.5 284.63,-49.5"/>
<polygon fill="#757575" stroke="#757575" points="284.84,-53 294.84,-49.5 284.84,-46 284.84,-53"/>
</g>
<!-- src/models/Query.js -->
<g id="node7" class="node">
<title>src/models/Query.js</title>
<path fill="none" stroke="#43d994" d="M420,-21C420,-21 313,-21 313,-21 309.5,-21 306,-17.5 306,-14 306,-14 306,-7 306,-7 306,-3.5 309.5,0 313,0 313,0 420,0 420,0 423.5,0 427,-3.5 427,-7 427,-7 427,-14 427,-14 427,-17.5 423.5,-21 420,-21"/>
<text text-anchor="middle" x="366.5" y="-7.4" font-family="Arial" font-size="12.00" fill="#43d994">src/models/Query.js</text>
</g>
<!-- src/services/query.service.js&#45;&gt;src/models/Query.js -->
<g id="edge6" class="edge">
<title>src/services/query.service.js&#45;&gt;src/models/Query.js</title>
<path fill="none" stroke="#757575" d="M228.38,-38.95C251.89,-34.07 279.99,-28.24 304.62,-23.13"/>
<polygon fill="#757575" stroke="#757575" points="305.5,-26.52 314.58,-21.06 304.08,-19.67 305.5,-26.52"/>
</g>
<!-- src/database/maria.conf.js -->
<g id="node5" class="node">
<title>src/database/maria.conf.js</title>
<path fill="none" stroke="#43d994" d="M622,-60C622,-60 481,-60 481,-60 477.5,-60 474,-56.5 474,-53 474,-53 474,-46 474,-46 474,-42.5 477.5,-39 481,-39 481,-39 622,-39 622,-39 625.5,-39 629,-42.5 629,-46 629,-46 629,-53 629,-53 629,-56.5 625.5,-60 622,-60"/>
<text text-anchor="middle" x="551.5" y="-46.4" font-family="Arial" font-size="12.00" fill="#43d994">src/database/maria.conf.js</text>
</g>
<!-- src/database/mariadb.js&#45;&gt;src/database/maria.conf.js -->
<g id="edge4" class="edge">
<title>src/database/mariadb.js&#45;&gt;src/database/maria.conf.js</title>
<path fill="none" stroke="#757575" d="M438.25,-49.5C446.64,-49.5 455.27,-49.5 463.84,-49.5"/>
<polygon fill="#757575" stroke="#757575" points="463.86,-53 473.86,-49.5 463.86,-46 463.86,-53"/>
</g>
</g>
</svg>
