<?xml version="1.0" encoding="UTF-8" standalone="no"?>
<!DOCTYPE svg PUBLIC "-//W3C//DTD SVG 1.1//EN"
 "http://www.w3.org/Graphics/SVG/1.1/DTD/svg11.dtd">
<!-- Generated by graphviz version 2.43.0 (0)
 -->
<!-- Title: G Pages: 1 -->
<svg width="1001pt" height="247pt"
 viewBox="0.00 0.00 1001.20 246.70" xmlns="http://www.w3.org/2000/svg" xmlns:xlink="http://www.w3.org/1999/xlink">
<g id="graph0" class="graph" transform="scale(1 1) rotate(0) translate(21.6 225.1)">
<title>G</title>
<polygon fill="#ffffff" stroke="transparent" points="-21.6,21.6 -21.6,-225.1 979.6,-225.1 979.6,21.6 -21.6,21.6"/>
<!-- ../backend/utils/tools.js -->
<g id="node1" class="node">
<title>../backend/utils/tools.js</title>
<path fill="none" stroke="#43d994" d="M951,-138C951,-138 828,-138 828,-138 824.5,-138 821,-134.5 821,-131 821,-131 821,-124 821,-124 821,-120.5 824.5,-117 828,-117 828,-117 951,-117 951,-117 954.5,-117 958,-120.5 958,-124 958,-124 958,-131 958,-131 958,-134.5 954.5,-138 951,-138"/>
<text text-anchor="middle" x="889.5" y="-124.4" font-family="Arial" font-size="12.00" fill="#43d994">../backend/utils/tools.js</text>
</g>
<!-- proxyServer.js -->
<g id="node2" class="node">
<title>proxyServer.js</title>
<path fill="none" stroke="#254bd7" d="M85,-127C85,-127 7,-127 7,-127 3.5,-127 0,-123.5 0,-120 0,-120 0,-113 0,-113 0,-109.5 3.5,-106 7,-106 7,-106 85,-106 85,-106 88.5,-106 92,-109.5 92,-113 92,-113 92,-120 92,-120 92,-123.5 88.5,-127 85,-127"/>
<text text-anchor="middle" x="46" y="-113.4" font-family="Arial" font-size="12.00" fill="#254bd7">proxyServer.js</text>
</g>
<!-- proxyServer.js&#45;&gt;../backend/utils/tools.js -->
<g id="edge1" class="edge">
<title>proxyServer.js&#45;&gt;../backend/utils/tools.js</title>
<path fill="none" stroke="#757575" d="M71.31,-127.17C126.53,-150.4 266.14,-203.5 388.5,-203.5 388.5,-203.5 388.5,-203.5 550.5,-203.5 662.17,-203.5 789.65,-163.52 851.26,-141.56"/>
<polygon fill="#757575" stroke="#757575" points="852.71,-144.76 860.93,-138.07 850.34,-138.17 852.71,-144.76"/>
</g>
<!-- src/models/Query.js -->
<g id="node3" class="node">
<title>src/models/Query.js</title>
<path fill="none" stroke="#254bd7" d="M443,-127C443,-127 336,-127 336,-127 332.5,-127 329,-123.5 329,-120 329,-120 329,-113 329,-113 329,-109.5 332.5,-106 336,-106 336,-106 443,-106 443,-106 446.5,-106 450,-109.5 450,-113 450,-113 450,-120 450,-120 450,-123.5 446.5,-127 443,-127"/>
<text text-anchor="middle" x="389.5" y="-113.4" font-family="Arial" font-size="12.00" fill="#254bd7">src/models/Query.js</text>
</g>
<!-- proxyServer.js&#45;&gt;src/models/Query.js -->
<g id="edge2" class="edge">
<title>proxyServer.js&#45;&gt;src/models/Query.js</title>
<path fill="none" stroke="#757575" d="M92.35,-116.5C150.25,-116.5 251.02,-116.5 318.73,-116.5"/>
<polygon fill="#757575" stroke="#757575" points="318.88,-120 328.88,-116.5 318.88,-113 318.88,-120"/>
</g>
<!-- src/services/query.service.js -->
<g id="node4" class="node">
<title>src/services/query.service.js</title>
<path fill="none" stroke="#254bd7" d="M286,-79C286,-79 135,-79 135,-79 131.5,-79 128,-75.5 128,-72 128,-72 128,-65 128,-65 128,-61.5 131.5,-58 135,-58 135,-58 286,-58 286,-58 289.5,-58 293,-61.5 293,-65 293,-65 293,-72 293,-72 293,-75.5 289.5,-79 286,-79"/>
<text text-anchor="middle" x="210.5" y="-65.4" font-family="Arial" font-size="12.00" fill="#254bd7">src/services/query.service.js</text>
</g>
<!-- proxyServer.js&#45;&gt;src/services/query.service.js -->
<g id="edge3" class="edge">
<title>proxyServer.js&#45;&gt;src/services/query.service.js</title>
<path fill="none" stroke="#757575" d="M82.66,-105.97C106.58,-98.9 138.29,-89.53 164.02,-81.93"/>
<polygon fill="#757575" stroke="#757575" points="165.32,-85.2 173.92,-79.01 163.34,-78.49 165.32,-85.2"/>
</g>
<!-- src/models/Query.js&#45;&gt;../backend/utils/tools.js -->
<g id="edge4" class="edge">
<title>src/models/Query.js&#45;&gt;../backend/utils/tools.js</title>
<path fill="none" stroke="#757575" d="M431.57,-127.04C448.33,-130.83 467.97,-134.63 486,-136.5 598.51,-148.15 729.62,-141.48 810.85,-134.99"/>
<polygon fill="#757575" stroke="#757575" points="811.31,-138.46 820.99,-134.16 810.74,-131.49 811.31,-138.46"/>
</g>
<!-- src/ngql/nebula.db.js -->
<g id="node5" class="node">
<title>src/ngql/nebula.db.js</title>
<path fill="none" stroke="#254bd7" d="M606,-127C606,-127 493,-127 493,-127 489.5,-127 486,-123.5 486,-120 486,-120 486,-113 486,-113 486,-109.5 489.5,-106 493,-106 493,-106 606,-106 606,-106 609.5,-106 613,-109.5 613,-113 613,-113 613,-120 613,-120 613,-123.5 609.5,-127 606,-127"/>
<text text-anchor="middle" x="549.5" y="-113.4" font-family="Arial" font-size="12.00" fill="#254bd7">src/ngql/nebula.db.js</text>
</g>
<!-- src/models/Query.js&#45;&gt;src/ngql/nebula.db.js -->
<g id="edge5" class="edge">
<title>src/models/Query.js&#45;&gt;src/ngql/nebula.db.js</title>
<path fill="none" stroke="#757575" d="M450.23,-116.5C458.5,-116.5 467.06,-116.5 475.53,-116.5"/>
<polygon fill="#757575" stroke="#757575" points="475.79,-120 485.79,-116.5 475.79,-113 475.79,-120"/>
</g>
<!-- src/services/query.service.js&#45;&gt;../backend/utils/tools.js -->
<g id="edge9" class="edge">
<title>src/services/query.service.js&#45;&gt;../backend/utils/tools.js</title>
<path fill="none" stroke="#757575" d="M277.81,-57.97C386.07,-43.14 606.58,-22.75 785,-69.5 815.72,-77.55 846.98,-96.94 866.99,-111.09"/>
<polygon fill="#757575" stroke="#757575" points="864.94,-113.94 875.09,-116.98 869.05,-108.27 864.94,-113.94"/>
</g>
<!-- src/services/query.service.js&#45;&gt;src/models/Query.js -->
<g id="edge10" class="edge">
<title>src/services/query.service.js&#45;&gt;src/models/Query.js</title>
<path fill="none" stroke="#757575" d="M250.34,-79.03C276.74,-86.19 311.86,-95.72 340.08,-103.37"/>
<polygon fill="#757575" stroke="#757575" points="339.18,-106.75 349.75,-105.99 341.01,-100 339.18,-106.75"/>
</g>
<!-- src/utils/tools.js -->
<g id="node7" class="node">
<title>src/utils/tools.js</title>
<path fill="none" stroke="#43d994" d="M431.5,-21C431.5,-21 347.5,-21 347.5,-21 344,-21 340.5,-17.5 340.5,-14 340.5,-14 340.5,-7 340.5,-7 340.5,-3.5 344,0 347.5,0 347.5,0 431.5,0 431.5,0 435,0 438.5,-3.5 438.5,-7 438.5,-7 438.5,-14 438.5,-14 438.5,-17.5 435,-21 431.5,-21"/>
<text text-anchor="middle" x="389.5" y="-7.4" font-family="Arial" font-size="12.00" fill="#43d994">src/utils/tools.js</text>
</g>
<!-- src/services/query.service.js&#45;&gt;src/utils/tools.js -->
<g id="edge11" class="edge">
<title>src/services/query.service.js&#45;&gt;src/utils/tools.js</title>
<path fill="none" stroke="#757575" d="M243.55,-58C272.41,-48.54 315.01,-34.58 346.56,-24.24"/>
<polygon fill="#757575" stroke="#757575" points="347.97,-27.46 356.39,-21.02 345.79,-20.81 347.97,-27.46"/>
</g>
<!-- src/ngql/nebula.db.js&#45;&gt;../backend/utils/tools.js -->
<g id="edge7" class="edge">
<title>src/ngql/nebula.db.js&#45;&gt;../backend/utils/tools.js</title>
<path fill="none" stroke="#757575" d="M613.28,-118.54C669.05,-120.36 750.76,-123.02 810.67,-124.97"/>
<polygon fill="#757575" stroke="#757575" points="810.73,-128.47 820.84,-125.3 810.95,-121.47 810.73,-128.47"/>
</g>
<!-- src/ngql/nebula.conf.js -->
<g id="node6" class="node">
<title>src/ngql/nebula.conf.js</title>
<path fill="none" stroke="#254bd7" d="M778,-99C778,-99 656,-99 656,-99 652.5,-99 649,-95.5 649,-92 649,-92 649,-85 649,-85 649,-81.5 652.5,-78 656,-78 656,-78 778,-78 778,-78 781.5,-78 785,-81.5 785,-85 785,-85 785,-92 785,-92 785,-95.5 781.5,-99 778,-99"/>
<text text-anchor="middle" x="717" y="-85.4" font-family="Arial" font-size="12.00" fill="#254bd7">src/ngql/nebula.conf.js</text>
</g>
<!-- src/ngql/nebula.db.js&#45;&gt;src/ngql/nebula.conf.js -->
<g id="edge8" class="edge">
<title>src/ngql/nebula.db.js&#45;&gt;src/ngql/nebula.conf.js</title>
<path fill="none" stroke="#757575" d="M612.6,-105.99C622.81,-104.27 633.48,-102.46 643.92,-100.7"/>
<polygon fill="#757575" stroke="#757575" points="644.55,-104.14 653.83,-99.02 643.39,-97.24 644.55,-104.14"/>
</g>
<!-- src/ngql/nebula.conf.js&#45;&gt;../backend/utils/tools.js -->
<g id="edge6" class="edge">
<title>src/ngql/nebula.conf.js&#45;&gt;../backend/utils/tools.js</title>
<path fill="none" stroke="#757575" d="M764.14,-99.05C785.18,-103.87 810.27,-109.61 832.39,-114.67"/>
<polygon fill="#757575" stroke="#757575" points="831.79,-118.12 842.32,-116.94 833.36,-111.3 831.79,-118.12"/>
</g>
</g>
</svg>
